PathFileType	4	(X/Y/Z)	C:\Users\Vitor Bertoli\OneDrive\Documents\Yolotestes\IMG_0212_Sports2D\IMG_0212_Sports2D_m_person00.trc
DataRate	CameraRate	NumFrames	NumMarkers	Units	OrigDataRate	OrigDataStartFrame	OrigNumFrames
112	112	8	22	m	112	0	401
Frame#	Time	Hip			RHip			RKnee			RAnkle			RBigToe			RSmallToe			RHeel			LHip			LKnee			LAnkle			LBigToe			LSmallToe			LHeel			Neck			Head			Nose			RShoulder			RElbow			RWrist			LShoulder			LElbow			LWrist		
		X1	Y1	Z1	X2	Y2	Z2	X3	Y3	Z3	X4	Y4	Z4	X5	Y5	Z5	X6	Y6	Z6	X7	Y7	Z7	X8	Y8	Z8	X9	Y9	Z9	X10	Y10	Z10	X11	Y11	Z11	X12	Y12	Z12	X13	Y13	Z13	X14	Y14	Z14	X15	Y15	Z15	X16	Y16	Z16	X17	Y17	Z17	X18	Y18	Z18	X19	Y19	Z19	X20	Y20	Z20	X21	Y21	Z21	X22	Y22	Z22
0	0.0	1.8087337814313953	0.8421339768738888	0.0	1.7124083683855102	0.8771909726387602	0.0	1.538486179601073	0.48780553640557706	0.0	1.3191021751677106	0.09324267116205587	0.0	1.416951628393385	-0.016721109455259616	0.0	1.3628400603230881	-0.013757603214369443	0.0	1.258114238482108	0.03793373683690641	0.0	1.908468921283303	0.8359461358325447	0.0	2.0565877710649385	0.5034991270872734	0.0	1.907980867405084	0.10184321000496283	0.0	2.0638669215812864	0.0015478176916272428	0.0	2.0510230177078608	0.017924804940461298	0.0	1.8552415791457213	0.04277207283273812	0.0	2.1679290239938855	1.2814965922712878	0.0	2.3923803807093624	1.4480937687579594	0.0	2.34208912914299	1.2935617459416229	0.0	1.9814974281902784	1.2731927697876908	0.0	1.796312989254285	1.02448622863031	0.0	2.0110582543987245	0.8675184298048387	0.0	2.211169982185273	1.2077107008120482	0.0	1.9951988558250897	1.0371650948238351	0.0	2.0164973627722245	0.8469579233910807	0.0
1	0.008928571428571428	1.8098381442106999	0.8415944935676933	0.0	1.7120047736324533	0.8744509798736548	0.0	1.5385622543861621	0.48633742152391063	0.0	1.3188067358555704	0.09270805557941458	0.0	1.4158723524548817	-0.019812998495164384	0.0	1.3606140967809768	-0.01675515888227567	0.0	1.257639792018945	0.0376819257239445	0.0	1.9093146587816632	0.8343754819517553	0.0	2.0570091577412244	0.5032263016093644	0.0	1.908208014616939	0.1016340935717156	0.0	2.066274925148242	-6.733400585106107e-05	0.0	2.0531847701663812	0.01790155923086689	0.0	1.8566392532079172	0.04432490948172028	0.0	2.168593572887453	1.2819766096535423	0.0	2.394026806030908	1.448737940632637	0.0	2.3448059532516177	1.2937615903365702	0.0	1.9830999763202601	1.2726372175769745	0.0	1.798286791681178	1.0234285067913196	0.0	2.0128122687539287	0.8662352234666039	0.0	2.2103946904656833	1.2078896405420136	0.0	1.9927264257205382	1.0380965401610633	0.0	2.011132691733237	0.847866597185171	0.0
2	0.017857142857142856	1.8108553194480816	0.8410520552670546	0.0	1.711653065989853	0.8719421015054899	0.0	1.5386680618739053	0.48496043477157824	0.0	1.3185308166680363	0.092206785613408	0.0	1.4148875209235623	-0.022617543527521326	0.0	1.3586046597047716	-0.01946601002242705	0.0	1.2572252441992848	0.03742318996459937	0.0	1.910091162653939	0.8329241542097682	0.0	2.0575046797024745	0.5030406808997046	0.0	1.9084588011603518	0.10152071011271974	0.0	2.0684032964518715	-0.0015434997836677935	0.0	2.0551284831904897	0.01788262342607186	0.0	1.8579902323589916	0.04578175984586397	0.0	2.1692690670868604	1.2823521660252584	0.0	2.3956723318960225	1.4492342140018473	0.0	2.3473624565428732	1.293888033878065	0.0	1.984624664246605	1.272049821655565	0.0	1.8001396804574732	1.022407703658028	0.0	2.014548585487266	0.8649932528045433	0.0	2.209717393461859	1.2080235794734226	0.0	1.9904130616711202	1.0389260697105314	0.0	2.005945665095308	0.8486531426355127	0.0
3	0.026785714285714284	1.811728881935378	0.8405037113156412	0.0	1.7113793962309272	0.8697854077264533	0.0	1.5388060620871373	0.4837160470875914	0.0	1.3182881068569254	0.09176048172187555	0.0	1.4140484030730334	-0.024963753214670713	0.0	1.356918829331791	-0.021718397385512626	0.0	1.2569039265982134	0.037159336274452254	0.0	1.9107703848886368	0.8316583749960027	0.0	2.058102862981394	0.5030036015811659	0.0	1.9087554488935257	0.10153680071758361	0.0	2.070093934734302	-0.00279856616066886	0.0	2.0567287301858186	0.017857517818424876	0.0	1.8592613308555626	0.04707917949826005	0.0	2.1699587810419234	1.282557653447099	0.0	2.3972982497571063	1.4494825439996097	0.0	2.3496744325910717	1.2938844760867194	0.0	1.9860281531443063	1.271431366076469	0.0	1.8018069701626716	1.0214448546020556	0.0	2.016227815763131	0.8638219608027735	0.0	2.2091766419088796	1.2080593047411774	0.0	1.9883445355391542	1.0395816169875527	0.0	2.0010777856507094	0.8492245827667643	0.0
4	0.03571428571428571	1.812433382460023	0.8399566171822466	0.0	1.7111945437555336	0.8680166450902097	0.0	1.5389680769579033	0.482596131892818	0.0	1.3180852018779208	0.09136625564985072	0.0	1.4133639236922497	-0.02680790125538885	0.0	1.355573682539255	-0.023468395707680674	0.0	1.25668936370107	0.03690337307775658	0.0	1.9113481867267184	0.8306066995986309	0.0	2.058795762012151	0.5031393406530419	0.0	1.9091104840946886	0.10167749435167532	0.0	2.0713024101874056	-0.003792038315679975	0.0	2.057952615137412	0.017821014928557366	0.0	1.8604325639315407	0.04818134721150171	0.0	2.170663485399689	1.2825538372047427	0.0	2.398906605219136	1.4494487844801982	0.0	2.35173529868678	1.2937262037182071	0.0	1.9873086936128919	1.270806978412472	0.0	1.8032764452893422	1.0205279368185132	0.0	2.017830219660461	0.8627211272846373	0.0	2.2087521960425796	1.2079425172771612	0.0	1.9865116013500848	1.0400155455712057	0.0	1.996557833095319	0.8494977550432327	0.0
5	0.04464285714285714	1.812974332597673	0.839419652087805	0.0	1.7111054278292537	0.8666127974415035	0.0	1.5391414547865776	0.4815789196431948	0.0	1.3179247915268928	0.09100907303022425	0.0	1.4128237827456536	-0.02817043148715619	0.0	1.3545517306814494	-0.024745028933891647	0.0	1.256580454099302	0.03667467222548983	0.0	1.9118282130315722	0.8297601860105185	0.0	2.0595592869272337	0.503434436261183	0.0	1.9095204718528993	0.1019104066839736	0.0	2.0720613597187025	-0.0045042039012047775	0.0	2.058816885686665	0.017780120699686115	0.0	1.8614701711064556	0.049058913298924554	0.0	2.171385262173224	1.2823253335454567	0.0	2.4004970715154883	1.449142009439529	0.0	2.353580191582316	1.2934157129873716	0.0	1.9884869415861783	1.2701983338072678	0.0	1.8045713885402956	1.0196267352256059	0.0	2.019354927184262	0.8616743117914673	0.0	2.2084052885800136	1.207628200142361	0.0	1.9848762081931604	1.0401993890442889	0.0	1.9923265087621502	0.849420873289323	0.0
6	0.05357142857142857	1.813378486971966	0.8388894428369397	0.0	1.7111191432992434	0.8655108564580736	0.0	1.5393200105104414	0.48065753216446	0.0	1.317805875418215	0.09067497837668304	0.0	1.412419508301785	-0.029086428121269502	0.0	1.3538369655000053	-0.025597997356522198	0.0	1.256559834736767	0.03648455644214078	0.0	1.9122125751248342	0.8290725030456504	0.0	2.0603677973370194	0.5038407320111528	0.0	1.909960353420535	0.10219477734605197	0.0	2.072441265004568	-0.004926954916856291	0.0	2.059348838966904	0.01775694173969393	0.0	1.8623351083853543	0.04969398459519684	0.0	2.1721359318548568	1.281883973209241	0.0	2.4020389525844195	1.448595180323721	0.0	2.3552507698229572	1.2929665163648172	0.0	1.9895885999913725	1.2696022672663168	0.0	1.8057279800034545	1.0187185504895881	0.0	2.020800243735457	0.8606677616312092	0.0	2.2081105579792277	1.2070856473009537	0.0	1.9834281886830194	1.0401172016254248	0.0	1.9883105041588902	0.8489966587113393	0.0
7	0.0625	1.8136805837056909	0.8383513199521155	0.0	1.711236441449481	0.864624172265645	0.0	1.5395070601003567	0.47983449104978265	0.0	1.3177240031118491	0.09035587987203533	0.0	1.412135102901289	-0.02961927293392568	0.0	1.353389786856917	-0.026097028151129055	0.0	1.2566004661356307	0.03633354300819805	0.0	1.9125098701614809	0.8284785239519624	0.0	2.061192048696893	0.5042818219070574	0.0	1.9103950239983292	0.10249375820438494	0.0	2.072535377119889	-0.00507420866755325	0.0	2.059589520293398	0.01778287407147629	0.0	1.8630128099338177	0.05010218841660855	0.0	2.1729367320026194	1.2812714824386164	0.0	2.4034955472633164	1.447855426632954	0.0	2.3567890025690525	1.292396284436407	0.0	1.990641761709683	1.268995621214917	0.0	1.806789760226972	1.0177946375968365	0.0	2.022158281133704	0.8596890522150479	0.0	2.2078461107337337	1.2063068461928894	0.0	1.9821674590657021	1.0397716840922848	0.0	1.9844975479835423	0.8482778611302076	0.0
